<?xml version="1.0" encoding="UTF-8"?>
<svg xmlns="http://www.w3.org/2000/svg" viewBox="0 0 512 512"><path fill="#000" d="M0 256C0 114.6 114.6 0 256 0c141.4 0 256 114.6 256 256c0 141.4-114.6 256-256 256C114.6 512 0 397.4 0 256zM256 48c20.7 0 40.7 2.9 59.8 8.5L152 192l-50.2 0l-85.8-85.8L40 120.2c5.6-16.8 15.2-32.2 28.2-45.2C101.7 37.7 175.5 24 256 24c119.1 0 216 96.9 216 216c0 20.7-2.9 40.7-8.5 59.8L336 392l0 0l85.8 85.8L392 336l0 0c16.8 5.6 32.2 15.2 45.2 28.2c33.4 33.4 48 76.9 48 123.1c0 20.7-2.9 40.7-8.5 59.8C436.3 497.1 397.4 512 256 512C114.6 512 0 397.4 0 256zM208 408c0 17.7-14.3 32-32 32s-32-14.3-32-32V352H112c-17.7 0-32-14.3-32-32s14.3-32 32-32h32V256c0-17.7 14.3-32 32-32s32 14.3 32 32v32h32c17.7 0 32 14.3 32 32s-14.3 32-32 32H208v56z"/></svg>